<?xml version="1.0" encoding="utf-8"?>
<!-- Generator: Adobe Illustrator 21.0.2, SVG Export Plug-In . SVG Version: 6.00 Build 0)  -->
<svg version="1.1" xmlns="http://www.w3.org/2000/svg" xmlns:xlink="http://www.w3.org/1999/xlink" x="0px" y="0px"
	 viewBox="0 0 408 408" style="enable-background:new 0 0 408 408;" xml:space="preserve">
<style type="text/css">
	.st0{display:none;}
	.st1{display:inline;}
	.st2{stroke:#000000;stroke-width:19;stroke-miterlimit:10;}
	.st3{fill:#FFFFFF;}
</style>
<g id="Layer_1" class="st0">
	<g id="Capa_1" class="st1">
		<g>
			<g id="refresh">
				<path class="st2" d="M297.8,110.2C274.4,85.1,240.9,70,204,70c-73.7,0-134,60.3-134,134s60.3,134,134,134
					c62,0,113.9-43.5,129-100.5h-35.2c-13.4,38.5-50.2,67-93.8,67c-55.3,0-100.5-45.3-100.5-100.5S148.7,103.5,204,103.5
					c28.5,0,51.9,11.7,70.4,30.1l-53.6,53.6H338V70L297.8,110.2z"/>
			</g>
		</g>
	</g>
	<g id="Layer_2">
		<path class="st1" d="M188.7,318.8l-91.8-89.2H408v-51H96.9l91.8-89.2l-38.2-35.7L0,204l150.4,150.4L188.7,318.8z"/>
	</g>
</g>
<g id="Layer_2_1_">
	<g id="Layer_2_2_">
		<path class="st3" d="M248.7,322.8l-91.8-89.2H347l1-51H156.9l91.8-89.2l-38.2-35.7L60,208l150.4,150.4L248.7,322.8z"/>
	</g>
</g>
</svg>
